<svg xmlns="http://www.w3.org/2000/svg" viewBox="0 0 80 80"><path fill="#bae0bd" d="M63.193,68.5c-11.99,0-20.693-9.054-20.693-21.529C42.5,34.53,51.203,25.5,63.193,25.5 c4.488,0,8.185,1.063,11.303,3.251c2.021,1.422,3.004,3.022,3.004,4.893c0,2.481-1.807,4.353-4.204,4.353 c-1.685,0-2.96-0.796-3.984-1.437c-1.902-1.233-3.699-1.761-6.004-1.761c-6.585,0-11.01,4.891-11.01,12.171 c0,7.314,4.425,12.228,11.01,12.228c2.772,0,4.247-0.597,5.998-1.697c1.016-0.672,2.269-1.5,3.933-1.5 c2.39,0,4.261,1.938,4.261,4.413c0,1.89-1.007,3.493-3.079,4.901C71.492,67.401,67.612,68.5,63.193,68.5z"></path><path fill="#5e9c76" d="M63.193,26c4.381,0,7.984,1.034,11.015,3.16C76.113,30.5,77,31.925,77,33.644 c0,2.232-1.558,3.853-3.703,3.853c-1.542,0-2.699-0.723-3.706-1.352c-1.995-1.294-3.874-1.846-6.282-1.846 c-6.885,0-11.51,5.092-11.51,12.671c0,7.613,4.626,12.728,11.51,12.728c2.879,0,4.477-0.651,6.283-1.786 c1.001-0.661,2.135-1.411,3.648-1.411c2.109,0,3.761,1.719,3.761,3.913c0,1.735-0.909,3.161-2.878,4.5 C71.287,66.933,67.508,68,63.193,68C51.492,68,43,59.156,43,46.971C43,34.819,51.492,26,63.193,26 M63.193,25 C50.913,25,42,34.24,42,46.971C42,59.734,50.913,69,63.193,69c4.523,0,8.514-1.138,11.509-3.271C76.922,64.221,78,62.483,78,60.415 c0-2.756-2.092-4.913-4.761-4.913c-1.811,0-3.154,0.886-4.199,1.577c-1.67,1.05-3.078,1.621-5.731,1.621 c-6.286,0-10.51-4.714-10.51-11.728c0-6.98,4.223-11.671,10.51-11.671c2.435,0,4.084,0.612,5.738,1.685 c1.08,0.675,2.425,1.513,4.25,1.513c2.682,0,4.703-2.085,4.703-4.853c0-2.044-1.051-3.779-3.217-5.302 C71.533,26.061,67.693,25,63.193,25L63.193,25z"></path><path fill="#ffeea3" d="M29.385,48.5c-2.831,0-4.885-2.08-4.885-4.945V10.384c0-2.83,2.055-4.884,4.885-4.884h8.48 c12.688,0,15.351,6.782,15.351,12.471c0,2.897-1.052,5.508-3.043,7.549l-0.432,0.443l0.524,0.33 c3.376,2.124,5.236,5.386,5.236,9.186c0,8.641-5.61,13.022-16.674,13.022H29.385z M33.5,39.5h4.948c4.467,0,6.052-2.46,6.052-4.568 c0-1.333-0.595-4.432-6.111-4.432H33.5V39.5z M33.5,21.5h4.789c3.559,0,5.18-1.856,5.18-3.582c0-2.269-1.985-3.418-5.9-3.418H33.5 V21.5z"></path><path fill="#ba9b48" d="M37.865,6c9.854,0,14.851,4.028,14.851,11.971c0,2.764-1.003,5.254-2.902,7.2l-0.864,0.886 l1.048,0.659C53.223,28.744,55,31.856,55,35.477C55,43.904,49.709,48,38.826,48h-9.442C26.803,48,25,46.172,25,43.555V10.384 C25,7.803,26.803,6,29.385,6H37.865 M33,22h1h4.289c3.902,0,5.68-2.116,5.68-4.081c0-3.239-3.481-3.919-6.4-3.919H34h-1v1v6V22 M33,40h1h4.448C43.284,40,45,37.27,45,34.932C45,30.356,39.94,30,38.389,30H34h-1v1v8V40 M37.865,5h-8.48 C26.265,5,24,7.264,24,10.384v33.171C24,46.71,26.265,49,29.385,49h9.442C50.222,49,56,44.452,56,35.477 c0-4.017-1.961-7.401-5.47-9.609c2.073-2.125,3.186-4.846,3.186-7.898C53.715,12.054,50.965,5,37.865,5L37.865,5z M34,21v-6h3.568 c4.319,0,5.4,1.387,5.4,2.919c0,1.562-1.541,3.081-4.68,3.081H34L34,21z M34,39v-8h4.389C42.947,31,44,33.183,44,34.932 C44,36.681,42.748,39,38.448,39H34L34,39z"></path><g><path fill="#f78f8f" d="M34.41,74.5c-2.555,0-4.284-1.421-5.285-4.346l-1.795-5.666l-12.707-0.064l-1.741,5.682 c-0.918,2.957-2.673,4.395-5.364,4.395c-1.661,0-3.138-0.71-4.052-1.949c-1.019-1.382-1.247-3.268-0.61-5.045l10.318-29.86 c0.875-2.642,2.636-6.146,7.821-6.146c5.039,0,6.751,3.107,7.762,6.147l10.445,29.869c0.576,1.849,0.303,3.766-0.735,5.112 C37.536,73.835,36.095,74.5,34.41,74.5z M17.607,55.5h6.806l-3.419-10.383L17.607,55.5z"></path><path fill="#c74343" d="M20.994,32c4.721,0,6.333,2.935,7.293,5.82l10.432,29.829c0.533,1.709,0.29,3.457-0.649,4.674 C37.237,73.405,35.936,74,34.41,74c-2.315,0-3.889-1.311-4.805-3.986l-1.689-5.33l-0.22-0.694l-0.728-0.004l-11.971-0.06 l-0.743-0.004l-0.218,0.711l-1.63,5.322C11.56,72.677,9.961,74,7.518,74c-1.501,0-2.831-0.636-3.65-1.746 c-0.92-1.248-1.123-2.96-0.538-4.591l10.32-29.866C14.544,35.098,16.187,32,20.994,32 M16.918,56h1.378h5.426h1.382l-0.432-1.313 l-2.726-8.277l-0.954-2.898l-0.946,2.9l-2.7,8.277L16.918,56 M20.994,31c-5.509,0-7.376,3.713-8.294,6.483L2.385,67.337 c-0.694,1.936-0.439,3.995,0.678,5.511C4.073,74.216,5.695,75,7.518,75c2.896,0,4.861-1.591,5.842-4.748l1.632-5.326l11.971,0.06 l1.689,5.33C29.716,73.425,31.654,75,34.41,75c1.844,0,3.425-0.733,4.453-2.066c1.138-1.476,1.448-3.54,0.812-5.583L29.231,37.49 C28.226,34.467,26.38,31,20.994,31L20.994,31z M18.296,55l2.7-8.277L23.722,55H18.296L18.296,55z"></path></g></svg>