<svg xmlns="http://www.w3.org/2000/svg" viewBox="0 0 80 80"><path fill="#6b9cde" d="M20.5 22.5H59.5V71.5H20.5z"></path><path fill="#9ec6fa" d="M10.5 26.5H20.5V71.5H10.5z"></path><path fill="#4e7ab5" d="M21,72H10V26h11V72z M11,71h9V27h-9V71z"></path><path fill="#9ec6fa" d="M5.5 71.5H74.5V76.5H5.5z"></path><path fill="#4e7ab5" d="M74,72v4H6v-4H74 M75,71H5v6h70V71L75,71z"></path><path fill="#9ec6fa" d="M7.5 22.5L7.5 17.332 40 1.542 72.5 17.332 72.5 22.5z"></path><path fill="#4e7ab5" d="M40,2.085l32,15.579V22H8v-4.336L40,2.085 M40,1L7,17v6h66v-6L40,1L40,1z"></path><path fill="#9ec6fa" d="M59.5 26.5H69.5V71.5H59.5z"></path><path fill="#4e7ab5" d="M70,72H59V26h11V72z M60,71h9V27h-9V71z"></path><path fill="#fff" d="M49.993,53.075c0.002-9.023-14.088-8.333-14.088-13.405c0-1.635,1.457-3.045,4.451-3.045 c3.392,0,5.745,0.967,7.643,2.125v-5.518c-1.358-0.76-3.309-1.215-6-1.37V28h-4v4.021c-2.229,0.344-4.389,1.245-5.744,2.604 C30.753,36.131,30,37.952,30,40.091c0,8.451,14,8.653,14,13.284c0,1.648-2.052,2.922-4.341,2.922c-4.686,0-7.824-2.01-8.609-2.65 v5.661c2.159,1.13,4.477,1.744,6.951,1.856V65h4v-3.979c2.513-0.329,4.464-1.151,5.844-2.479 C49.276,57.159,49.993,55.336,49.993,53.075z"></path><path fill="#9ec6fa" d="M8.5 22.5H21.5V26.5H8.5z"></path><path fill="#4e7ab5" d="M21,23v3H9v-3H21 M22,22H8v5h14V22L22,22z"></path><path fill="#9ec6fa" d="M58.5 22.5H71.5V26.5H58.5z"></path><path fill="#4e7ab5" d="M71,23v3H59v-3H71 M72,22H58v5h14V22L72,22z"></path></svg>