<svg xmlns="http://www.w3.org/2000/svg" viewBox="0 0 64 64"><path fill="#c5e4fa" d="M47,45H5c-1.105,0-2-0.895-2-2V5c0-1.105,0.895-2,2-2h42c1.105,0,2,0.895,2,2v38 C49,44.105,48.105,45,47,45z"></path><path fill="#8b8e98" d="M7 7H45V37H7z"></path><path fill="#c5e4fa" d="M59,61H17c-1.105,0-2-0.895-2-2V21c0-1.105,0.895-2,2-2h42c1.105,0,2,0.895,2,2v38 C61,60.105,60.105,61,59,61z"></path><path fill="#8b8e98" d="M19 23H57V53H19z"></path><path fill="#a0a3aa" d="M24.4 53L54.4 23 52.98 23 22.98 53zM57 43.221L57 30.456 34.636 53 47.322 53zM57 26.059L57 23.22 27.22 53 30.052 53z"></path><path fill="#8d6c9f" d="M56,22H20c-1.103,0-2,0.897-2,2v28c0,1.103,0.897,2,2,2h3c0.552,0,1-0.448,1-1s-0.448-1-1-1h-3V24 h36v28h-3c-0.552,0-1,0.448-1,1s0.448,1,1,1h3c1.103,0,2-0.897,2-2V24C58,22.897,57.103,22,56,22z"></path><path fill="#8d6c9f" d="M59,18h-9V5c0-1.654-1.346-3-3-3H5C3.346,2,2,3.346,2,5v38c0,1.654,1.346,3,3,3h9v13 c0,1.654,1.346,3,3,3h42c1.654,0,3-1.346,3-3V21C62,19.346,60.654,18,59,18z M5,44c-0.551,0-1-0.449-1-1V5c0-0.551,0.449-1,1-1h42 c0.551,0,1,0.449,1,1v13h-2V8c0-1.103-0.897-2-2-2H8C6.897,6,6,6.897,6,8v28c0,1.103,0.897,2,2,2h3c0.552,0,1-0.448,1-1 s-0.448-1-1-1H8V8h36v10H17c-1.654,0-3,1.346-3,3v23H5z M60,59c0,0.551-0.449,1-1,1H17c-0.551,0-1-0.449-1-1V21 c0-0.551,0.449-1,1-1h42c0.551,0,1,0.449,1,1V59z"></path><path fill="#8d6c9f" d="M33 50c-.552 0-1 .448-1 1v2c0 .552.448 1 1 1s1-.448 1-1v-2C34 50.448 33.552 50 33 50zM38 50c-.552 0-1 .448-1 1v2c0 .552.448 1 1 1s1-.448 1-1v-2C39 50.448 38.552 50 38 50zM43 50c-.552 0-1 .448-1 1v2c0 .552.448 1 1 1s1-.448 1-1v-2C44 50.448 43.552 50 43 50zM48 50c-.552 0-1 .448-1 1v2c0 .552.448 1 1 1s1-.448 1-1v-2C49 50.448 48.552 50 48 50zM28 50c-.552 0-1 .448-1 1v2c0 .552.448 1 1 1s1-.448 1-1v-2C29 50.448 28.552 50 28 50z"></path><path fill="#a0a3aa" d="M31.292 30.998L32.53 33.262 34.794 34.5 32.53 35.738 31.292 38.002 30.053 35.738 27.79 34.5 30.053 33.262zM20.375 10.165L21.23 11.728 22.794 12.583 21.23 13.439 20.375 15.002 19.52 13.439 17.956 12.583 19.52 11.728zM25.604 41.706L26.187 42.772 27.252 43.354 26.187 43.937 25.604 45.002 25.022 43.937 23.956 43.354 25.022 42.772zM11.604 13.706L12.187 14.772 13.252 15.354 12.187 15.937 11.604 17.002 11.022 15.937 9.956 15.354 11.022 14.772z"></path></svg>