<svg xmlns="http://www.w3.org/2000/svg" data-name="Layer 1" viewBox="0 0 64 64"><path fill="#acb7d0" d="M49 59L23 59 26 55 46 55 49 59z" stroke="none" stroke-width="1px"></path><path fill="#a0aecb" d="M29 49H39V55H29z" stroke="none" stroke-width="1px"></path><rect width="62" height="38" x="1" y="13" fill="#c2cde7" rx="2" ry="2" stroke="none" stroke-width="1px"></rect><path fill="#cfd9ed" d="M1 48H63V51H1z" stroke="none" stroke-width="1px"></path><path fill="#c5e4fa" d="M1 17H59V45H1z" stroke="none" stroke-width="1px"></path><path fill="#e3f2ff" d="M47.93 45L59 33.93 59 17.86 31.86 45 47.93 45zM27.57 45L55.57 17 49.14 17 21.14 45 27.57 45zM16.86 45L44.86 17 39.5 17 11.5 45 16.86 45z" stroke="none" stroke-width="1px"></path><path fill="#fff8f8" d="M36.5 28L37.74 30.26 40 31.5 37.74 32.74 36.5 35 35.26 32.74 33 31.5 35.26 30.26 36.5 28zM49.42 21.16L50.27 22.73 51.84 23.58 50.27 24.44 49.42 26 48.56 24.44 47 23.58 48.56 22.73 49.42 21.16zM52.65 38.7L53.23 39.77 54.3 40.35 53.23 40.94 52.65 42 52.06 40.94 51 40.35 52.06 39.77 52.65 38.7z" stroke="none" stroke-width="1px"></path><path fill="#c2cde7" d="M1 5H29V59H1z" stroke="none" stroke-width="1px"></path><path fill="#34c695" d="M17 40A2 2 0 1 0 17 44A2 2 0 1 0 17 40Z" stroke="none" stroke-width="1px"></path><path fill="#f283a5" d="M9 40A2 2 0 1 0 9 44A2 2 0 1 0 9 40Z" stroke="none" stroke-width="1px"></path><path fill="#ced8ed" d="M1 5H29V10H1z" stroke="none" stroke-width="1px"></path><path fill="#b5c4e0" d="M5,52H25a4,4,0,0,1,4,4v3a0,0,0,0,1,0,0H1a0,0,0,0,1,0,0V56A4,4,0,0,1,5,52Z" stroke="none" stroke-width="1px"></path><path fill="#8d6c9f" d="M61,12H30V7a3,3,0,0,0-3-3H3A3,3,0,0,0,0,7V57a3,3,0,0,0,3,3H50a1,1,0,0,0,.71-1.71l-2.83-2.83A5,5,0,0,0,44.34,54H40V52H61a3,3,0,0,0,3-3V15A3,3,0,0,0,61,12ZM22,58H3a1,1,0,0,1-1-1V7A1,1,0,0,1,3,6H27a1,1,0,0,1,1,1V57a1,1,0,0,1-1,1Zm16-4H33a1,1,0,0,0,0,2H44.34a3,3,0,0,1,2.12.88L47.59,58H29.82A3,3,0,0,0,30,57V52h8Zm24-5a1,1,0,0,1-1,1H30V46h4.08a1,1,0,0,0,0-2H30V14H61a1,1,0,0,1,1,1Z" stroke="none" stroke-width="1px"></path><path fill="#fc6d74" d="M39,43a1,1,0,0,0-1,1v2a1,1,0,0,0,2,0V44A1,1,0,0,0,39,43Z" stroke="none" stroke-width="1px"></path><path fill="#34c695" d="M44,43a1,1,0,0,0-1,1v2a1,1,0,0,0,2,0V44A1,1,0,0,0,44,43Z" stroke="none" stroke-width="1px"></path><path fill="#5eb0dd" d="M49,43a1,1,0,0,0-1,1v2a1,1,0,0,0,2,0V44A1,1,0,0,0,49,43Z" stroke="none" stroke-width="1px"></path><path fill="#8d6c9f" d="M37 16H33a1 1 0 0 0 0 2h4a1 1 0 0 0 0-2zM58 16H41a1 1 0 0 0 0 2H58V44H53a1 1 0 0 0 0 2h5a2 2 0 0 0 2-2V18A2 2 0 0 0 58 16zM9 39a3 3 0 1 0 3 3A3 3 0 0 0 9 39zm0 4.21A1.21 1.21 0 1 1 10.21 42 1.21 1.21 0 0 1 9 43.21zM20 42a3 3 0 1 0-3 3A3 3 0 0 0 20 42zm-3 1.17A1.17 1.17 0 1 1 18.17 42 1.17 1.17 0 0 1 17 43.17zM7 18H23a1 1 0 0 0 0-2H7a1 1 0 0 0 0 2zM23 20H7a1 1 0 0 0 0 2H23a1 1 0 0 0 0-2zM15 50a1 1 0 0 0-1 1v2a1 1 0 0 0 2 0V51A1 1 0 0 0 15 50zM20 50a1 1 0 0 0-1 1v2a1 1 0 0 0 2 0V51A1 1 0 0 0 20 50zM25 50a1 1 0 0 0-1 1v2a1 1 0 0 0 2 0V51A1 1 0 0 0 25 50zM5 50a1 1 0 0 0-1 1v2a1 1 0 0 0 2 0V51A1 1 0 0 0 5 50zM10 50a1 1 0 0 0-1 1v2a1 1 0 0 0 2 0V51A1 1 0 0 0 10 50z" stroke="none" stroke-width="1px"></path></svg>